<svg width="21" height="25" viewBox="0 0 21 25" fill="none" xmlns="http://www.w3.org/2000/svg">
<path d="M17.717 16.333L16.2498 15.9022L13.0576 13.8172V13.3394C13.9818 12.6423 14.6165 11.5767 14.7345 10.3553C15.198 10.2807 15.5531 9.87789 15.5531 9.39371V8.07999C15.5531 8.07491 15.5526 8.06993 15.5523 8.06486V6.4007C15.737 6.26847 15.8542 6.05309 15.8542 5.81149V4.28854L18.0572 3.91329C18.4192 3.85162 18.6796 3.56407 18.7052 3.19772C18.7307 2.83136 18.5127 2.51046 18.1628 2.39918L10.7362 0.0369751C10.5812 -0.0123413 10.4175 -0.0122925 10.2626 0.0369263L2.83594 2.39918C2.48599 2.51046 2.26802 2.83136 2.29355 3.19767C2.30977 3.43043 2.421 3.63112 2.59268 3.76256V5.75411H2.57451C2.1563 5.75411 1.81606 6.09435 1.81606 6.51256V7.50113L1.32646 10.3748C1.24185 10.8718 1.62466 11.3267 2.13003 11.3267H3.7877C4.29194 11.3267 4.67607 10.8729 4.59126 10.3747L4.10166 7.50113V6.51256C4.10166 6.09435 3.76143 5.75411 3.34321 5.75411H3.3251V3.97858L5.14609 4.28873V5.81149C5.14609 6.05206 5.26274 6.2671 5.44653 6.39952L5.44722 8.08014V9.39371C5.44722 9.87794 5.80234 10.2807 6.26587 10.3553C6.38379 11.576 7.01778 12.6411 7.94111 13.3383V13.8183L4.74961 15.9029L3.28355 16.3332C1.71475 16.7937 0.607031 18.2339 0.607031 19.9082V20.9996C0.607031 21.2018 0.770947 21.3658 0.973242 21.3658C1.17554 21.3658 1.33945 21.2019 1.33945 20.9996V19.9082C1.33945 18.5886 2.22368 17.4075 3.48984 17.0359L4.85586 16.635L10.3132 19.8778C10.424 19.9436 10.5706 19.9471 10.6873 19.8778L16.145 16.6348L17.5108 17.0358C18.7768 17.4074 19.661 18.5885 19.661 19.9079V23.4449C19.661 23.8986 19.2919 24.2677 18.8383 24.2677H17.2242V22.6892C17.2242 22.4869 17.0603 22.323 16.858 22.323C16.6557 22.323 16.4918 22.4869 16.4918 22.6892V24.2677H4.50698V22.6892C4.50698 22.4869 4.34307 22.323 4.14077 22.323C3.93848 22.323 3.77456 22.4869 3.77456 22.6892V24.2677H2.16211C1.70845 24.2677 1.33936 23.8986 1.33936 23.4449V22.7114C1.33936 22.5092 1.17544 22.3452 0.973145 22.3452C0.77085 22.3452 0.606934 22.5091 0.606934 22.7114V23.4449C0.606934 24.3024 1.30454 25 2.16206 25H18.8382C19.6957 25 20.3933 24.3024 20.3933 23.4449V19.9079C20.3933 18.2731 19.3234 16.8046 17.717 16.333ZM3.78765 10.5943H2.13003C2.07881 10.5943 2.03975 10.5485 2.04844 10.4977L2.49131 7.8983H3.42637L3.86924 10.4977C3.87788 10.5484 3.83911 10.5943 3.78765 10.5943ZM3.36924 6.51256V7.16593H2.54839V6.51256C2.54839 6.49816 2.56006 6.48649 2.57446 6.48649H3.34312C3.35757 6.48644 3.36924 6.49816 3.36924 6.51256ZM9.19043 18.2213L9.33618 18.4453L5.59746 16.2237L7.97056 14.6737C8.07818 15.9364 8.49439 17.1515 9.19043 18.2213ZM9.18789 16.6404C10.0499 16.7629 10.95 16.763 11.8124 16.6404C11.6458 17.0505 11.4404 17.4462 11.196 17.8219L10.5001 18.8914L9.8043 17.8219C9.55991 17.4462 9.35454 17.0505 9.18789 16.6404ZM11.8099 18.2213C12.5059 17.1515 12.9221 15.9364 13.0297 14.6737L15.4028 16.2237L11.6641 18.4453L11.8099 18.2213ZM13.952 6.53707H14.82V7.71373H14.3892C14.1481 7.71373 13.952 7.51764 13.952 7.27657V6.53707H13.952ZM3.05791 3.09713L10.4847 0.734827C10.4942 0.731799 10.5045 0.73175 10.5142 0.734876L17.9409 3.09713C17.9563 3.10201 17.9773 3.10865 17.9746 3.14679C17.9719 3.18488 17.9502 3.18854 17.9343 3.19127L15.4788 3.60948L14.5569 3.49547C14.3564 3.47062 14.1734 3.61329 14.1486 3.81398C14.1238 4.01471 14.2664 4.19752 14.4671 4.22233L15.1219 4.30333V5.8047L5.87847 5.80436V4.30328L9.66787 3.83439C10.2198 3.76617 10.7794 3.76617 11.331 3.83439L12.7652 4.01178C12.9659 4.03663 13.1487 3.89401 13.1736 3.69332C13.1984 3.49259 13.0558 3.30978 12.8551 3.28492L11.4209 3.10753C10.8097 3.0319 10.1896 3.0319 9.57798 3.10753L5.52066 3.60958L3.06445 3.19127C3.04854 3.18854 3.02681 3.18488 3.02412 3.14679C3.02148 3.10865 3.04253 3.10197 3.05791 3.09713ZM6.1794 7.71373L6.17891 6.53707H7.04829V7.27662C7.04829 7.51764 6.8522 7.71378 6.61108 7.71378H6.1794V7.71373ZM6.9854 10.1671C6.96655 9.86886 6.7187 9.63527 6.42119 9.63527C6.28794 9.63527 6.17954 9.52687 6.17954 9.39366V8.44615H6.61108C7.25596 8.44615 7.78066 7.9215 7.78066 7.27662V6.53707H13.2196V7.27662C13.2196 7.9215 13.7443 8.44615 14.3892 8.44615H14.8207V9.39366C14.8207 9.52687 14.7123 9.63527 14.5791 9.63527C14.2815 9.63527 14.0337 9.86886 14.0148 10.1671C13.8982 12.0162 12.3543 13.4647 10.5001 13.4647C8.64585 13.4647 7.10205 12.0162 6.9854 10.1671ZM10.5001 14.197C11.1515 14.197 11.7705 14.0481 12.3252 13.7833V14.0154C12.3252 14.6415 12.2408 15.2591 12.0781 15.8548C11.0829 16.0446 9.95776 16.0523 8.92217 15.8548C8.75952 15.2592 8.67505 14.6416 8.67505 14.0154C8.67505 14.0076 8.67398 14.0001 8.67349 13.9924C8.67339 13.9909 8.67354 13.9894 8.67344 13.9879V13.7826C9.22857 14.0478 9.8482 14.197 10.5001 14.197Z" fill="black"/>
</svg>
